<svg width="106" height="47" viewBox="0 0 106 47" fill="none" xmlns="http://www.w3.org/2000/svg">
<path d="M17.5312 35H10.2656V6.78125H0.960938V0.734375H26.8359V6.78125H17.5312V35ZM42.5737 0.734375C45.6831 0.734375 48.2456 1.10938 50.2612 1.85938C52.2925 2.60938 53.8003 3.74219 54.7847 5.25781C55.7691 6.77344 56.2612 8.6875 56.2612 11C56.2612 12.5625 55.9644 13.9297 55.3706 15.1016C54.7769 16.2734 53.9956 17.2656 53.0269 18.0781C52.0581 18.8906 51.0112 19.5547 49.8862 20.0703L59.9644 35H51.9019L43.7222 21.8516H39.855V35H32.5894V0.734375H42.5737ZM42.0581 6.6875H39.855V15.9453H42.1987C44.605 15.9453 46.3237 15.5469 47.355 14.75C48.4019 13.9375 48.9253 12.75 48.9253 11.1875C48.9253 9.5625 48.3628 8.40625 47.2378 7.71875C46.1284 7.03125 44.4019 6.6875 42.0581 6.6875ZM64.7569 35V0.734375H72.0225V35H64.7569ZM95.1431 8.30469C98.0963 8.30469 100.479 9.45312 102.292 11.75C104.12 14.0469 105.034 17.4141 105.034 21.8516C105.034 24.8203 104.604 27.3203 103.745 29.3516C102.885 31.3672 101.698 32.8906 100.182 33.9219C98.6666 34.9531 96.9244 35.4688 94.9556 35.4688C93.69 35.4688 92.6041 35.3125 91.6978 35C90.7916 34.6719 90.0181 34.2578 89.3775 33.7578C88.7369 33.2422 88.1822 32.6953 87.7134 32.1172H87.3384C87.4634 32.7422 87.5572 33.3828 87.6197 34.0391C87.6822 34.6953 87.7134 35.3359 87.7134 35.9609V46.5312H80.565V8.79688H86.3775L87.3853 12.1953H87.7134C88.1822 11.4922 88.7525 10.8438 89.4244 10.25C90.0963 9.65625 90.9009 9.1875 91.8384 8.84375C92.7916 8.48438 93.8931 8.30469 95.1431 8.30469ZM92.8463 14.0234C91.5963 14.0234 90.6041 14.2812 89.8697 14.7969C89.1353 15.3125 88.5963 16.0859 88.2525 17.1172C87.9244 18.1484 87.7447 19.4531 87.7134 21.0312V21.8047C87.7134 23.4922 87.8697 24.9219 88.1822 26.0938C88.5103 27.2656 89.0494 28.1562 89.7994 28.7656C90.565 29.375 91.6119 29.6797 92.94 29.6797C94.0338 29.6797 94.9322 29.375 95.6353 28.7656C96.3384 28.1562 96.8619 27.2656 97.2056 26.0938C97.565 24.9062 97.7447 23.4609 97.7447 21.7578C97.7447 19.1953 97.3463 17.2656 96.5494 15.9688C95.7525 14.6719 94.5181 14.0234 92.8463 14.0234Z" fill="white"/>
</svg>
