<svg width="53" height="24" viewBox="0 0 53 24" fill="none" xmlns="http://www.w3.org/2000/svg">
<path d="M8.76562 18H5.13281V3.89062H0.480469V0.867188H13.418V3.89062H8.76562V18ZM21.2869 0.867188C22.8416 0.867188 24.1228 1.05469 25.1306 1.42969C26.1462 1.80469 26.9002 2.37109 27.3923 3.12891C27.8845 3.88672 28.1306 4.84375 28.1306 6C28.1306 6.78125 27.9822 7.46484 27.6853 8.05078C27.3884 8.63672 26.9978 9.13281 26.5134 9.53906C26.0291 9.94531 25.5056 10.2773 24.9431 10.5352L29.9822 18H25.9509L21.8611 11.4258H19.9275V18H16.2947V0.867188H21.2869ZM21.0291 3.84375H19.9275V8.47266H21.0994C22.3025 8.47266 23.1619 8.27344 23.6775 7.875C24.2009 7.46875 24.4627 6.875 24.4627 6.09375C24.4627 5.28125 24.1814 4.70312 23.6189 4.35938C23.0642 4.01562 22.2009 3.84375 21.0291 3.84375ZM32.3784 18V0.867188H36.0112V18H32.3784ZM47.5716 4.65234C49.0481 4.65234 50.2395 5.22656 51.1458 6.375C52.0598 7.52344 52.5169 9.20703 52.5169 11.4258C52.5169 12.9102 52.302 14.1602 51.8723 15.1758C51.4427 16.1836 50.8489 16.9453 50.0911 17.4609C49.3333 17.9766 48.4622 18.2344 47.4778 18.2344C46.845 18.2344 46.302 18.1562 45.8489 18C45.3958 17.8359 45.0091 17.6289 44.6888 17.3789C44.3684 17.1211 44.0911 16.8477 43.8567 16.5586H43.6692C43.7317 16.8711 43.7786 17.1914 43.8098 17.5195C43.8411 17.8477 43.8567 18.168 43.8567 18.4805V23.7656H40.2825V4.89844H43.1888L43.6927 6.59766H43.8567C44.0911 6.24609 44.3763 5.92188 44.7122 5.625C45.0481 5.32812 45.4505 5.09375 45.9192 4.92188C46.3958 4.74219 46.9466 4.65234 47.5716 4.65234ZM46.4231 7.51172C45.7981 7.51172 45.302 7.64062 44.9348 7.89844C44.5677 8.15625 44.2981 8.54297 44.1263 9.05859C43.9622 9.57422 43.8723 10.2266 43.8567 11.0156V11.4023C43.8567 12.2461 43.9348 12.9609 44.0911 13.5469C44.2552 14.1328 44.5247 14.5781 44.8997 14.8828C45.2825 15.1875 45.8059 15.3398 46.47 15.3398C47.0169 15.3398 47.4661 15.1875 47.8177 14.8828C48.1692 14.5781 48.4309 14.1328 48.6028 13.5469C48.7825 12.9531 48.8723 12.2305 48.8723 11.3789C48.8723 10.0977 48.6731 9.13281 48.2747 8.48438C47.8763 7.83594 47.2591 7.51172 46.4231 7.51172Z" fill="white"/>
</svg>
